<?xml version="1.0" encoding="UTF-8"?>
<svg id="Layer_1" data-name="Layer 1" xmlns="http://www.w3.org/2000/svg" viewBox="0 0 309.92 400.99">
  <defs>
    <style>
      .cls-1 {
        fill: #231f20;
      }
      @media (prefers-color-scheme: dark) {
        .cls-1 {
          fill: #fff;
        }
      }
    </style>
  </defs>
  <path class="cls-1" d="M59.24,398.91c-20.44-8.91-24.85-38.99-30.59-78.16-7.87-53.71-13.03-88.94,9.98-119.75,22.62-30.28,58.83-38.02,65.43-39.44,15.51-3.32,28.56-1.91,54.67,.9,45.07,4.85,52.68,15.58,54.67,18.82,6.63,10.78,6.27,21.51,6.27,21.51-.2,6.06-2,7.25-1.79,13.44,.37,11.21,6.21,14.81,4.48,19.72-1.72,4.89-9.03,4.72-22.41,8.07-2.02,.51-16.96,4.3-26,8.95-15.18,7.8-30.77,26.77-28.67,44.83,1.34,11.56,9.68,20.58,18.82,30.47,7.96,8.61,13.01,10.92,18.82,20.61,4.06,6.78,7.83,13.05,7.17,20.61-1.3,14.97-19.16,25.84-33.16,29.41-11.59,2.95-17.48,.11-33.16-1.62-39.49-4.36-48.7,8.52-64.53,1.62Z" />
  <path class="cls-1" d="M275.24,288.85c-12.62,2.87-29.96-7.82-32.27-21.51-1.08-6.39,1.42-11.66,2.69-14.34,6.85-14.45,22.88-18.48,27.78-19.72,5.78-1.46,17.04-4.29,26.89,1.79,1.74,1.07,9.09,5.61,9.56,12.55,.37,5.36-3.61,8.82-11.36,17.03-18.85,19.97-17.38,22.85-23.3,24.2Z" />
  <path class="cls-1" d="M220.57,278.99c4.52,1.08,3.88,6.55,8.96,12.55,8.49,10.03,20.08,6.33,24.2,15.24,1.63,3.52,1.47,7.67,0,10.76-3.37,7.08-13.27,7.9-15.24,8.07-10.39,.87-20.48-5.26-25.99-13.44-5.05-7.49-8.52-20.05-2.69-27.78,2.29-3.04,6.77-6.33,10.76-5.38Z" />
  <path class="cls-1" d="M219.41,153.29c-8.68,8.09-29.14,4.65-34.16-6.17-2.04-4.41-1.98-11.03,1.23-13.26,3.89-2.7,8.69,3.63,21.5,5.24,8.89,1.11,13.35-1.09,15.32,1.77,2.06,2.99-.28,9.05-3.89,12.42Z" />
  <path class="cls-1" d="M229.56,109.22c-8.38,8.4-28.95,5.7-34.36-4.93-2.2-4.33-2.38-10.95,.75-13.29,3.79-2.84,8.82,3.32,21.67,4.46,8.92,.79,13.3-1.57,15.37,1.22,2.16,2.91,.05,9.06-3.44,12.55Z" />
  <path class="cls-1" d="M169.72,97.24c-7.52,9.18-28.26,8.5-34.67-1.55-2.62-4.1-3.44-10.67-.56-13.3,3.49-3.19,9.1,2.44,22.01,2.32,8.96-.08,13.08-2.86,15.42-.29,2.44,2.68,.93,9.01-2.19,12.82Z" />
  <path class="cls-1" d="M170.14,142.49c-7.51,9.19-28.25,8.54-34.68-1.5-2.62-4.09-3.45-10.67-.57-13.3,3.49-3.2,9.1,2.43,22.01,2.29,8.96-.1,13.08-2.88,15.42-.31,2.44,2.68,.95,9.01-2.18,12.83Z" />
  <path class="cls-1" d="M115.34,100.94c-6.36,10.01-27.03,11.84-34.61,2.63-3.09-3.75-4.69-10.18-2.15-13.14,3.08-3.59,9.33,1.33,22.13-.34,8.88-1.16,12.64-4.41,15.27-2.14,2.74,2.37,2.01,8.83-.63,12.99Z" />
  <path class="cls-1" d="M118.75,142.54c-6.39,10-27.06,11.77-34.62,2.55-3.08-3.76-4.67-10.19-2.12-13.15,3.09-3.58,9.33,1.35,22.13-.29,8.89-1.14,12.65-4.38,15.27-2.11,2.74,2.38,1.99,8.84-.67,12.99Z" />
  <path class="cls-1" d="M49.05,114.16c-4.05,11.15-23.83,17.41-33.22,10.06-3.83-3-6.79-8.92-4.94-12.36,2.23-4.17,9.39-.72,21.53-5.12,8.42-3.05,11.39-7.04,14.44-5.4,3.19,1.72,3.87,8.19,2.19,12.82Z" />
  <path class="cls-1" d="M60.71,155.48c-4.05,11.15-23.83,17.41-33.22,10.06-3.83-3-6.79-8.92-4.94-12.36,2.23-4.17,9.39-.72,21.53-5.12,8.42-3.05,11.39-7.04,14.44-5.4,3.19,1.72,3.87,8.19,2.19,12.82Z" />
  <path class="cls-1" d="M19.79,86.29c-10.26,.6-16.47-12.34-17.4-14.38C-.03,66.6-.01,61.91,0,56.98c.03-7.46,.05-13.85,4.55-19.09,3.86-4.48,11.25-8.4,16.83-6.02,4.01,1.71,5.68,6.08,8.17,12.59,1.54,4.02,2.09,7.08,2.94,11.93,1.7,9.72,2.55,14.57,1.19,18.3-1.91,5.23-7.2,11.2-13.89,11.59Z" />
  <path class="cls-1" d="M90.53,71.02c-7.58-1.22-11.94-7.35-13.31-9.27-5.05-7.1-4.76-14.63-4.3-26.57,.32-8.21,.58-13.29,4.1-18.53,1.31-1.95,5.32-7.92,11.82-8.6,9.04-.94,15.85,9.1,16.72,10.38,1.48,2.19,2.38,4.23,5.92,25.18,1.7,10.04,1.77,11.2,1.23,13.09-2.36,8.3-12.3,15.92-22.18,14.32Z" />
  <path class="cls-1" d="M232.3,69.53c-4.44,2.04-8.59,1.77-10.19,1.58-.76-.09-8.32-1.08-12.71-6.84-2.38-3.13-2.82-6.35-1.95-20.96,1.33-22.36,2.96-24.68,4.43-26.2,4.73-4.9,12.83-6.85,19.52-4.67,9.8,3.18,12.8,13.95,14.24,19.12,3.17,11.37-.52,20.73-1.69,23.57-1.79,4.35-4.59,11.15-11.66,14.4Z" />
  <path class="cls-1" d="M150.98,62.43c-7.29-2.43-10.59-9.19-11.63-11.31-3.83-7.82-2.32-15.21,.06-26.91,1.64-8.05,2.72-13.02,7.04-17.62,1.61-1.71,6.53-6.96,13.05-6.57,9.07,.54,14.17,11.55,14.82,12.95,1.11,2.4,1.66,4.56,1.77,25.8,.05,10.18-.07,11.34-.91,13.12-3.67,7.81-14.71,13.71-24.21,10.54Z" />
</svg>