<?xml version="1.0" encoding="UTF-8"?>
<svg id="svg2" xmlns="http://www.w3.org/2000/svg" viewBox="0 0 386.05 102.11">
   <defs>
      <style>
         .cls-1 {
            fill: #fff;
         }
      </style>
   </defs>
   <path id="path24" class="cls-1"
      d="M21.84,12.6c0,6.23-4.89,11.29-10.92,11.29S0,18.83,0,12.6,4.89,1.31,10.92,1.31s10.92,5.05,10.92,11.29" />
   <path id="path28" class="cls-1"
      d="M21.84,51.05c0,6.23-4.89,11.29-10.92,11.29S0,57.29,0,51.05s4.89-11.29,10.92-11.29,10.92,5.05,10.92,11.29" />
   <path id="path32" class="cls-1"
      d="M21.84,89.51c0,6.23-4.89,11.29-10.92,11.29S0,95.74,0,89.51s4.89-11.29,10.92-11.29,10.92,5.05,10.92,11.29" />
   <path id="path34" class="cls-1"
      d="M59.95,51.05c0,6.23-4.89,11.29-10.92,11.29s-10.92-5.05-10.92-11.29,4.89-11.29,10.92-11.29,10.92,5.05,10.92,11.29" />
   <path id="path36" class="cls-1"
      d="M59.95,12.6c0,6.23-4.89,11.29-10.92,11.29s-10.92-5.05-10.92-11.29S43,1.31,49.03,1.31s10.92,5.05,10.92,11.29" />
   <path id="path38" class="cls-1"
      d="M98.05,51.05c0,6.23-4.89,11.29-10.92,11.29s-10.92-5.05-10.92-11.29,4.89-11.29,10.92-11.29,10.92,5.05,10.92,11.29" />
   <path id="path40" class="cls-1"
      d="M98.05,12.6c0,6.23-4.89,11.29-10.92,11.29s-10.92-5.05-10.92-11.29,4.89-11.29,10.92-11.29,10.92,5.05,10.92,11.29" />
   <path id="path42" class="cls-1"
      d="M98.05,89.51c0,6.23-4.89,11.29-10.92,11.29s-10.92-5.05-10.92-11.29,4.89-11.29,10.92-11.29,10.92,5.05,10.92,11.29" />
   <path id="path44" class="cls-1"
      d="M59.95,89.51c0,6.23-4.89,11.29-10.92,11.29s-10.92-5.05-10.92-11.29,4.89-11.29,10.92-11.29,10.92,5.05,10.92,11.29" />
   <path id="path54" class="cls-1"
      d="M350.61,102.11c-13.96,0-26-6.22-34.07-15.98l10.26-10.32c6.43,7.21,15.88,11.74,24.91,11.74,13.41,0,19.84-4.81,19.84-14.43,0-7.64-5.61-11.45-21.62-16.4-20.25-6.22-29.96-11.46-29.96-29.13S333.91,0,351.57,0c13,0,22.85,4.95,31.34,13.44l-10.12,10.61c-6.02-6.36-12.86-9.48-22.3-9.48-11.22,0-16.01,5.66-16.01,12.3s4.38,10.32,20.94,15.41c18.88,5.94,30.65,12.16,30.65,29.84s-10.95,29.98-35.44,29.98" />
   <path id="path50" class="cls-1"
      d="M260.56,14.85c-16.7,0-25.86,14-25.86,36.2s9.17,36.2,25.86,36.2,26-14,26-36.2-9.17-36.2-26-36.2Zm0,87.25c-24.77,0-40.5-21.07-40.5-51.05S235.8,0,260.56,0s40.64,21.07,40.64,51.05-15.73,51.05-40.64,51.05" />
   <path id="path46" class="cls-1"
      d="M171.61,15.56h-27.92v31.82h27.92c9.58,0,16.28-5.09,16.28-15.84s-6.57-15.98-16.28-15.98Zm9.71,44.55l19.57,40.45h-16.55l-19.02-39.17h-21.62v39.17h-14.09V1.55h42.01c16.7,0,30.79,9.2,30.79,29.56,0,15.84-8.07,25.6-21.07,28.99" />
</svg>