<?xml version="1.0" encoding="utf-8"?>
<!-- Generator: Adobe Illustrator 27.6.1, SVG Export Plug-In . SVG Version: 6.00 Build 0)  -->
<svg version="1.1" xmlns="http://www.w3.org/2000/svg" xmlns:xlink="http://www.w3.org/1999/xlink" x="0px" y="0px"
	viewBox="0 0 179.5 44" style="enable-background:new 0 0 179.5 44;" xml:space="preserve">
	<style type="text/css">
		.st0 {
			fill: #121212;
		}
	</style>
	<g>
		<path class="st0"
			d="M15.1,44c-1.6-0.1-3.6-0.1-5.5-0.1c-0.6,0-1.2,0.1-1.8,0c-0.9-0.1-1.7-0.6-2.2-1.3
		c-0.7-1.1-1.3-2.3-1.5-3.5c-0.4-1.8-0.7-3.7-0.8-5.5c-0.1-1.7-0.3-3.5-0.4-5.2c-0.2-1.6,0.1-3.3,0.8-4.8c0.7-1.2,1.6-2.2,2.8-3
		c1.9-1.4,4-2.3,6.3-2.7c1.4-0.2,2.8-0.3,4.2-0.1c1.7,0.2,3.3,0.5,4.8,1.1c0.8,0.3,1.6,0.7,2.3,1.3c0.4,0.3,0.7,0.8,0.8,1.3
		c0,0.2,0,0.5-0.2,0.7c-0.5,0.8-0.6,1.8-0.3,2.7c0,0.3,0.1,0.5,0.2,0.8c0.2,0.4-0.1,0.9-0.5,1.1c-0.1,0-0.1,0-0.2,0
		c-0.7,0.2-1.4,0.3-2.1,0.6c-1.1,0.3-2.1,0.8-3.1,1.3c-0.8,0.4-1.5,1.1-2,1.9c-0.6,1.1-0.7,2.5-0.2,3.6c0.2,0.5,0.6,0.9,1.1,1.2
		c1.1,0.8,2.1,1.7,2.9,2.8c0.4,0.5,0.7,1.2,0.9,1.8c0.3,1.1-0.2,2.3-1.1,2.9c-0.7,0.6-1.7,0.9-2.6,1C16.8,44,16.1,44,15.1,44" />
		<path class="st0" d="M34,27.2c0,0.5-0.2,0.9-0.4,1.3c-0.4,0.7-0.7,1.4-1.1,2.1c-0.2,0.4-0.5,0.8-0.9,1.1
		c-0.3,0.4-0.9,0.4-1.2,0.1c0,0,0,0,0,0c-1-0.7-2-1.4-3.1-2.2c-0.1-0.1-0.3-0.2-0.4-0.3c-0.2-0.2-0.3-0.5-0.1-0.8
		c0.8-1.7,2.4-2.9,4.3-3.1c0.9-0.1,1.8,0.1,2.4,0.6C33.9,26.5,34.1,26.8,34,27.2" />
		<path class="st0"
			d="M18.8,4.8c0,0.5-0.1,1-0.3,1.4c-0.5,0.7-1.4,1-2.2,0.8c-0.7-0.1-1.2-0.6-1.5-1.2
		c-0.8-1.6-0.6-3.5,0.4-5c0.3-0.6,1-0.9,1.6-0.7c0.7,0.1,1.3,0.6,1.6,1.2c0.2,0.7,0.3,1.4,0.3,2.2C18.8,3.8,18.8,4.2,18.8,4.8" />
		<path class="st0"
			d="M12.6,4.9c0.1,0.8-0.2,1.6-0.8,2.1C11.1,7.7,10,7.8,9.2,7.2c-0.5-0.4-0.8-1-0.8-1.6
		C8.4,5.1,8.3,4.6,8.3,4C8.1,2.8,8.6,1.7,9.6,0.9c0.5-0.5,1.4-0.6,1.9-0.1c0.2,0.2,0.3,0.3,0.4,0.6C12.4,2.5,12.6,3.7,12.6,4.9" />
		<path class="st0"
			d="M22.9,6.1C22.9,5.1,23,4,23.2,3c0.3-1,0.9-1.5,1.8-1.4c0.6,0.1,1.2,0.4,1.6,0.9
		c0.5,0.6,0.7,1.4,0.7,2.1c0.1,1.1-0.3,2.1-1,2.9c-0.6,0.7-1.6,0.9-2.4,0.6c-0.6-0.2-1-0.8-1-1.5C22.9,6.4,22.9,6.3,22.9,6.1" />
		<path class="st0" d="M4.2,7.9C4.2,9,3.2,10,2,10c-0.2,0-0.4,0-0.6-0.1C0.9,9.6,0.5,9.2,0.3,8.7
		c-0.4-1.1-0.4-2.2-0.1-3.3C0.5,4.6,1.2,4,2,3.9c0.5-0.1,1.1,0.2,1.3,0.7C3.8,5.6,4.1,6.7,4.2,7.9" />
		<path class="st0" d="M22.9,32.5c0-0.6,0.2-1.2,0.6-1.6c0.4-0.4,0.8-0.4,1.1,0.1c0.2,0.3,0.3,0.6,0.5,0.9
		c0.4,1,1.3,1.6,2.3,1.8c0.1,0,0.3,0,0.4,0.1c0.5,0.1,0.7,0.4,0.5,0.9c-0.3,0.9-1.2,1.5-2.1,1.3c-1.6-0.3-2.8-1.5-3.2-3
		C22.9,32.9,22.9,32.7,22.9,32.5" />
		<path class="st0"
			d="M2.9,13.9c-0.7,0-1.4-0.4-1.6-1.1c-0.1-0.5,0-0.7,0.5-0.7c0.2,0,0.4,0,0.7,0
		c0.7,0,1.3-0.2,1.8-0.7c0.1-0.1,0.2-0.2,0.3-0.3c0.4-0.3,0.5-0.3,0.8,0.1c0.4,0.5,0.3,1.2-0.1,1.6C4.7,13.5,3.8,13.8,2.9,13.9" />
		<path class="st0"
			d="M17,16.3c-0.7,0-1.4-0.2-1.9-0.6c-0.5-0.3-0.7-0.9-0.6-1.5c0.1-0.4,0.3-0.5,0.6-0.3
		c0.3,0.1,0.5,0.2,0.8,0.4c0.6,0.3,1.3,0.3,2,0.1c0.7-0.3,0.9-0.1,0.9,0.6c0,0.5-0.3,1-0.8,1.2C17.7,16.2,17.3,16.3,17,16.3" />
		<path class="st0" d="M24.4,13.3c-0.8,0-1.6-0.3-2.2-0.8c-0.4-0.4-0.6-1-0.4-1.5c0.1-0.4,0.3-0.5,0.7-0.3
		c0.2,0.1,0.4,0.2,0.6,0.4c0.6,0.4,1.4,0.5,2.2,0.3c0.6-0.2,0.8,0,0.8,0.6c0,0.7-0.6,1.3-1.3,1.3c0,0,0,0,0,0
		C24.6,13.3,24.5,13.3,24.4,13.3" />
		<path class="st0" d="M23.3,17.6c-0.9,0-1.7-0.3-2.3-1c-0.3-0.3-0.4-0.8-0.2-1.2c0.1-0.4,0.3-0.5,0.7-0.3
		c0.2,0.1,0.3,0.2,0.5,0.3c0.6,0.4,1.4,0.5,2.1,0.3c0.1,0,0.1,0,0.2-0.1c0.6-0.2,0.9,0.1,0.8,0.8c-0.1,0.7-0.8,1.3-1.5,1.3
		C23.5,17.6,23.4,17.6,23.3,17.6" />
		<path class="st0" d="M13,10.7c0,0.4-0.2,0.8-0.5,1.1c-0.8,0.6-1.9,0.8-2.9,0.3c-0.6-0.2-1-0.8-1-1.4
		c0-0.4,0.2-0.5,0.5-0.5c0.3,0.1,0.6,0.2,1,0.3c0.6,0.1,1.2,0,1.7-0.3c0.1-0.1,0.3-0.2,0.4-0.2c0.2-0.1,0.5-0.1,0.6,0.1
		c0,0.1,0.1,0.1,0.1,0.2C13,10.5,13,10.6,13,10.7" />
		<path class="st0" d="M17.1,11.6c-0.5,0-1-0.2-1.5-0.4c-0.6-0.3-0.9-0.9-0.8-1.6c0.1-0.4,0.3-0.6,0.7-0.4
		c0.2,0.1,0.4,0.2,0.7,0.3c0.6,0.3,1.2,0.3,1.8,0.1l0.2-0.1c0.7-0.3,0.9-0.1,0.9,0.6c0,0.6-0.4,1.1-1,1.3
		C17.8,11.6,17.5,11.7,17.1,11.6" />
		<path class="st0"
			d="M11.2,16.9c-0.5,0-0.9-0.1-1.3-0.3c-0.5-0.3-0.8-0.8-0.7-1.3c0-0.3,0.2-0.5,0.5-0.4
		c0.2,0,0.4,0.1,0.5,0.2c0.8,0.3,1.6,0.2,2.3-0.3c0.5-0.4,0.9-0.2,1,0.4c0.1,0.6-0.2,1.3-0.8,1.5C12.2,16.8,11.7,16.9,11.2,16.9" />
		<path class="st0"
			d="M4.5,19c-0.8,0.1-1.6-0.4-1.7-1.2c-0.1-0.4,0-0.6,0.4-0.6c0.4,0,0.8,0.1,1.2,0
		c0.5-0.1,0.9-0.3,1.3-0.6c0.1-0.1,0.3-0.3,0.4-0.4c0.3-0.2,0.5-0.2,0.7,0.1c0.3,0.6,0.3,1.3-0.2,1.7C6.1,18.7,5.3,19,4.5,19" />
	</g>
	<path class="st0" d="M45.3,19V3.2H58c0.5,0,1.1,0.1,1.5,0.4c0.5,0.3,0.8,0.7,1.1,1.1c0.3,0.5,0.4,1,0.4,1.5v9.7
	c0,0.5-0.1,1.1-0.4,1.5c-0.3,0.5-0.7,0.8-1.1,1.1c-0.5,0.3-1,0.4-1.5,0.4H45.3z M48.4,16.1h9.5c0.1,0,0.1,0,0.2-0.1
	c0.1,0,0.1-0.1,0.1-0.2V6.4c0-0.1,0-0.1-0.1-0.2C58,6.1,58,6.1,57.9,6.1h-9.5c-0.1,0-0.1,0-0.2,0.1c-0.1,0-0.1,0.1-0.1,0.2v9.5
	c0,0.1,0,0.1,0.1,0.2C48.3,16,48.4,16.1,48.4,16.1z M64.5,19V3.2h14.6v2.9H67.4v3.5h9.4v2.9h-9.4v3.5h11.7V19H64.5z M85.2,19
	c-0.5,0-1.1-0.1-1.5-0.4c-0.5-0.3-0.8-0.7-1.1-1.1c-0.3-0.5-0.4-1-0.4-1.5v-1.2H85v1.1c0,0.1,0,0.1,0.1,0.2c0,0.1,0.1,0.1,0.2,0.1
	h9.5c0.1,0,0.1,0,0.2-0.1c0.1,0,0.1-0.1,0.1-0.2v-3c0-0.1,0-0.1-0.1-0.2c-0.1,0-0.1-0.1-0.2-0.1h-9.6c-0.5,0-1.1-0.1-1.5-0.4
	c-0.5-0.3-0.8-0.7-1.1-1.1c-0.3-0.5-0.4-1-0.4-1.6V6.2c0-0.5,0.1-1.1,0.4-1.5c0.3-0.5,0.7-0.8,1.1-1.1c0.5-0.3,1-0.4,1.5-0.4h9.7
	c0.5,0,1.1,0.1,1.5,0.4c0.5,0.3,0.8,0.7,1.1,1.1c0.3,0.5,0.4,1,0.4,1.5v1.2H95V6.4c0-0.1,0-0.1-0.1-0.2c0-0.1-0.1-0.1-0.2-0.1h-9.5
	c-0.1,0-0.1,0-0.2,0.1c-0.1,0-0.1,0.1-0.1,0.2v3c0,0.1,0,0.1,0.1,0.2c0.1,0,0.1,0.1,0.2,0.1h9.6c0.5,0,1.1,0.1,1.5,0.4
	c0.5,0.3,0.8,0.7,1.1,1.1c0.3,0.5,0.4,1,0.4,1.6v3.3c0,0.5-0.1,1.1-0.4,1.5c-0.3,0.5-0.7,0.8-1.1,1.1c-0.5,0.3-1,0.4-1.5,0.4H85.2z
	 M106.9,19V6.1h-6.5V3.2h15.8v2.9h-6.4V19H106.9z M131.4,19l-4.8-5.7h3.8l4.1,4.9V19H131.4z M118.8,19V3.2h12.8
	c0.5,0,1.1,0.1,1.5,0.4c0.5,0.3,0.8,0.7,1.1,1.1c0.3,0.5,0.4,1,0.4,1.5v4.3c0,0.5-0.1,1.1-0.4,1.5c-0.3,0.5-0.7,0.8-1.1,1.1
	c-0.5,0.3-1,0.4-1.5,0.4l-9.9,0V19H118.8z M122,10.6h9.5c0.1,0,0.1,0,0.2-0.1c0.1,0,0.1-0.1,0.1-0.2v-4c0-0.1,0-0.1-0.1-0.2
	c-0.1-0.1-0.1-0.1-0.2-0.1H122c-0.1,0-0.1,0-0.2,0.1c-0.1,0-0.1,0.1-0.1,0.2v4c0,0.1,0,0.1,0.1,0.2C121.9,10.6,121.9,10.6,122,10.6z
	 M137.9,19V6.2c0-0.5,0.1-1.1,0.4-1.5c0.3-0.5,0.7-0.8,1.1-1.1c0.5-0.3,1-0.4,1.5-0.4h9.7c0.5,0,1.1,0.1,1.5,0.4
	c0.5,0.3,0.8,0.7,1.1,1.1c0.3,0.5,0.4,1,0.4,1.5V19h-2.9v-5.3h-10V19H137.9z M140.8,10.8h10V6.4c0-0.1,0-0.1-0.1-0.2
	c-0.1-0.1-0.1-0.1-0.2-0.1h-9.5c-0.1,0-0.1,0-0.2,0.1c-0.1,0-0.1,0.1-0.1,0.2L140.8,10.8z M57.9,41l-4.8-5.7h3.8l4.1,4.9V41H57.9z
	 M45.2,41V25.2H58c0.5,0,1.1,0.1,1.5,0.4c0.5,0.3,0.8,0.7,1.1,1.1c0.3,0.5,0.4,1,0.4,1.5v4.3c0,0.5-0.1,1.1-0.4,1.5
	c-0.3,0.5-0.7,0.8-1.1,1.1c-0.5,0.3-1,0.4-1.5,0.4l-9.9,0V41H45.2z M48.4,32.6h9.5c0.1,0,0.1,0,0.2-0.1c0.1,0,0.1-0.1,0.1-0.2v-4
	c0-0.1,0-0.1-0.1-0.2c-0.1-0.1-0.1-0.1-0.2-0.1h-9.5c-0.1,0-0.3,0.1-0.3,0.3c0,0,0,0,0,0v4.1c0,0.1,0,0.1,0.1,0.2
	C48.3,32.6,48.3,32.6,48.4,32.6z M67.3,41c-0.5,0-1.1-0.1-1.5-0.4c-0.5-0.3-0.8-0.7-1.1-1.1c-0.3-0.5-0.4-1-0.4-1.5v-9.7
	c0-0.5,0.1-1.1,0.4-1.5c0.3-0.5,0.7-0.8,1.1-1.1c0.5-0.3,1-0.4,1.5-0.4H77c0.5,0,1.1,0.1,1.5,0.4c0.5,0.3,0.8,0.7,1.1,1.1
	c0.3,0.5,0.4,1,0.4,1.5v9.7c0,0.5-0.1,1.1-0.4,1.5c-0.3,0.5-0.7,0.8-1.1,1.1c-0.5,0.3-1,0.4-1.5,0.4H67.3z M67.4,38.1h9.5
	c0.1,0,0.1,0,0.2-0.1c0.1,0,0.1-0.1,0.1-0.2v-9.5c0-0.1,0-0.1-0.1-0.2c-0.1-0.1-0.1-0.1-0.2-0.1h-9.5c-0.1,0-0.3,0.1-0.3,0.3
	c0,0,0,0,0,0v9.5C67.1,38,67.2,38.1,67.4,38.1C67.4,38.1,67.4,38.1,67.4,38.1z M83.4,41V25.2h12.1c0.5,0,1.1,0.1,1.5,0.4
	c0.5,0.3,0.8,0.7,1.1,1.1c0.3,0.5,0.4,1,0.4,1.5v3.1c0,0.2,0,0.4,0,0.5c0,0.2-0.1,0.3-0.2,0.5c0.2,0.3,0.4,0.7,0.6,1.1
	c0.2,0.3,0.2,0.7,0.2,1.1v3.4c0,0.5-0.1,1.1-0.4,1.5c-0.3,0.5-0.7,0.8-1.1,1.1c-0.5,0.3-1,0.4-1.5,0.4L83.4,41z M86.6,38.1h9.5
	c0.1,0,0.1,0,0.2-0.1c0.1,0,0.1-0.1,0.1-0.2v-3.1c0-0.1,0-0.1-0.1-0.2c-0.1,0-0.1-0.1-0.2-0.1h-9.5c-0.1,0-0.3,0.1-0.3,0.3
	c0,0,0,0,0,0v3.1C86.3,38,86.4,38.1,86.6,38.1C86.6,38.1,86.6,38.1,86.6,38.1z M86.6,31.5h8.8c0.1,0,0.1,0,0.2-0.1
	c0-0.1,0.1-0.1,0.1-0.2v-2.9c0-0.1,0-0.1-0.1-0.2c0-0.1-0.1-0.1-0.2-0.1h-8.8c-0.1,0-0.3,0.1-0.3,0.3c0,0,0,0,0,0v2.9
	C86.3,31.4,86.4,31.5,86.6,31.5C86.6,31.5,86.6,31.5,86.6,31.5z M105.6,41c-0.5,0-1.1-0.1-1.5-0.4c-0.5-0.3-0.8-0.7-1.1-1.1
	c-0.3-0.5-0.4-1-0.4-1.5v-9.7c0-0.5,0.1-1.1,0.4-1.5c0.3-0.5,0.7-0.8,1.1-1.1c0.5-0.3,1-0.4,1.5-0.4h9.7c0.5,0,1.1,0.1,1.5,0.4
	c0.5,0.3,0.8,0.7,1.1,1.1c0.3,0.5,0.4,1,0.4,1.5v9.7c0,0.5-0.1,1.1-0.4,1.5c-0.3,0.5-0.7,0.8-1.1,1.1c-0.5,0.3-1,0.4-1.5,0.4H105.6z
	 M105.7,38.1h9.5c0.1,0,0.1,0,0.2-0.1c0.1,0,0.1-0.1,0.1-0.2v-9.5c0-0.1,0-0.1-0.1-0.2c-0.1-0.1-0.1-0.1-0.2-0.1h-9.5
	c-0.1,0-0.3,0.1-0.3,0.3c0,0,0,0,0,0v9.5C105.4,38,105.5,38.1,105.7,38.1C105.7,38.1,105.7,38.1,105.7,38.1z M127.3,41V28.1h-6.5
	v-2.9h15.8v2.9h-6.4V41H127.3z M138.9,41V25.2h2.9V41H138.9z M147.9,41c-0.5,0-1.1-0.1-1.5-0.4c-0.5-0.3-0.8-0.7-1.1-1.1
	c-0.3-0.5-0.4-1-0.4-1.5v-9.7c0-0.5,0.1-1.1,0.4-1.5c0.3-0.5,0.7-0.8,1.1-1.1c0.5-0.3,1-0.4,1.5-0.4h12.7v2.9h-12.1
	c-0.2,0-0.4,0.1-0.6,0.2c-0.1,0.2-0.2,0.4-0.2,0.6v8.4c0,0.4,0.3,0.7,0.7,0.8c0,0,0.1,0,0.1,0h12.1V41H147.9z M166.8,41
	c-0.5,0-1.1-0.1-1.5-0.4c-0.5-0.3-0.8-0.7-1.1-1.1c-0.3-0.5-0.4-1-0.4-1.5v-1.2h2.9v1.1c0,0.1,0.1,0.3,0.3,0.3c0,0,0,0,0,0h9.5
	c0.1,0,0.3-0.1,0.3-0.3c0,0,0,0,0,0v-3c0-0.1,0-0.1-0.1-0.2c-0.1,0-0.1-0.1-0.2-0.1h-9.6c-0.5,0-1.1-0.1-1.5-0.4
	c-0.5-0.3-0.8-0.7-1.1-1.1c-0.3-0.5-0.4-1-0.4-1.6v-3.3c0-0.5,0.1-1.1,0.4-1.5c0.3-0.5,0.7-0.8,1.1-1.1c0.5-0.3,1-0.4,1.5-0.4h9.7
	c0.5,0,1.1,0.1,1.5,0.4c0.5,0.3,0.8,0.7,1.1,1.1c0.3,0.5,0.4,1,0.4,1.5v1.2h-2.9v-1.1c0-0.1-0.1-0.3-0.3-0.3c0,0,0,0,0,0h-9.5
	c-0.1,0-0.3,0.1-0.3,0.3c0,0,0,0,0,0v3c0,0.1,0,0.1,0.1,0.2c0.1,0,0.1,0.1,0.2,0.1h9.6c0.5,0,1.1,0.1,1.5,0.4
	c0.5,0.3,0.8,0.7,1.1,1.1c0.3,0.5,0.4,1,0.4,1.6v3.3c0,0.5-0.1,1.1-0.4,1.5c-0.3,0.5-0.7,0.8-1.1,1.1c-0.5,0.3-1,0.4-1.5,0.4H166.8z
	" />
</svg>