<?xml version="1.0" encoding="UTF-8"?><svg xmlns="http://www.w3.org/2000/svg" viewBox="0 0 179.54 44.01"><defs><style>.s{fill:#121212;}</style></defs><g><path class="s" d="m15.06,44.01c-1.62-.08-3.58-.06-5.53-.07-.62,0-1.23.08-1.85.04-.91-.08-1.73-.58-2.22-1.35-.73-1.06-1.25-2.26-1.53-3.52-.44-1.81-.7-3.66-.8-5.53-.12-1.73-.3-3.46-.38-5.19-.17-1.63.11-3.27.8-4.75.67-1.21,1.63-2.24,2.78-3.01,1.87-1.36,4.02-2.28,6.3-2.69,1.39-.23,2.8-.26,4.2-.09,1.66.16,3.29.54,4.85,1.12.85.3,1.64.75,2.34,1.31.43.3.73.76.82,1.28.04.25-.01.51-.15.72-.5.81-.62,1.79-.35,2.7.05.26.11.51.15.76.16.42-.06.9-.48,1.05-.07.03-.14.04-.22.05-.69.18-1.4.32-2.08.55-1.08.32-2.12.76-3.11,1.3-.83.43-1.52,1.08-2,1.88-.61,1.12-.68,2.47-.17,3.64.22.5.59.91,1.06,1.19,1.11.77,2.08,1.73,2.85,2.83.42.54.73,1.15.9,1.81.25,1.11-.2,2.25-1.14,2.88-.75.59-1.66.94-2.61,1.01-.7.07-1.39.05-2.42.06"/><path class="s" d="m34.05,27.23c-.05.46-.2.9-.44,1.29-.36.72-.72,1.45-1.14,2.14-.23.42-.53.8-.88,1.13-.31.37-.86.42-1.23.11-.01,0-.02-.02-.03-.03-1-.74-2.03-1.44-3.05-2.16-.13-.09-.25-.19-.36-.31-.22-.19-.27-.51-.13-.77.8-1.71,2.44-2.87,4.32-3.05.87-.14,1.76.1,2.45.64.32.23.51.61.5,1.01"/><path class="s" d="m18.85,4.76c.01.49-.09.99-.3,1.43-.5.69-1.37,1-2.19.76-.66-.13-1.21-.57-1.49-1.18-.76-1.63-.6-3.53.41-5.01.33-.58,1-.87,1.64-.73.72.07,1.34.56,1.57,1.25.18.7.28,1.43.28,2.15.04.41.04.82.07,1.33"/><path class="s" d="m12.64,4.88c.07.8-.25,1.58-.85,2.12-.71.68-1.8.78-2.61.23-.49-.38-.77-.97-.76-1.58-.06-.53-.12-1.07-.15-1.61-.13-1.2.37-2.37,1.31-3.12.52-.55,1.38-.57,1.93-.05.16.15.28.34.35.55.51,1.08.78,2.27.78,3.47"/><path class="s" d="m22.88,6.15c.01-1.06.12-2.11.31-3.15.26-1.03.86-1.54,1.75-1.44.63.06,1.22.37,1.62.86.49.6.74,1.36.71,2.14.05,1.06-.3,2.09-.98,2.9-.6.68-1.55.92-2.4.6-.62-.22-1.04-.81-1.02-1.47v-.45"/><path class="s" d="m4.19,7.87c-.01,1.17-.97,2.11-2.14,2.1-.22,0-.44-.04-.65-.11-.51-.21-.91-.65-1.06-1.18-.43-1.06-.45-2.23-.05-3.3.25-.79.94-1.36,1.76-1.48.55-.11,1.1.17,1.33.69.41,1.06.69,2.16.82,3.29"/><path class="s" d="m22.94,32.5c-.02-.59.19-1.16.59-1.58.41-.44.77-.41,1.08.1.17.29.33.59.47.9.43.95,1.31,1.63,2.35,1.8.13.03.25.05.38.08.52.13.66.38.53.91-.26.92-1.17,1.5-2.12,1.35-1.57-.31-2.82-1.48-3.23-3.02-.04-.18-.06-.36-.05-.54"/><path class="s" d="m2.93,13.86c-.71.04-1.37-.39-1.6-1.06-.14-.46.01-.69.49-.7h.66c.67.03,1.31-.23,1.77-.71.1-.1.2-.2.3-.29.37-.35.49-.34.8.08.38.49.35,1.19-.09,1.65-.6.65-1.45,1.02-2.33,1.04"/><path class="s" d="m16.96,16.27c-.69.05-1.37-.17-1.9-.6-.48-.34-.7-.94-.55-1.51.09-.37.3-.47.64-.3.25.12.5.25.75.37.62.3,1.34.32,1.97.05.67-.26.93-.08.92.64.01.52-.3.98-.79,1.17-.33.15-.69.22-1.04.19"/><path class="s" d="m24.37,13.33c-.81.04-1.59-.27-2.16-.85-.4-.38-.56-.95-.39-1.48.11-.38.33-.47.67-.28.2.11.39.24.58.37.64.43,1.44.55,2.17.3.59-.16.81,0,.79.61,0,.73-.59,1.33-1.32,1.33,0,0-.01,0-.02,0-.11,0-.22,0-.33,0"/><path class="s" d="m23.27,17.58c-.87.04-1.71-.34-2.25-1.02-.27-.34-.36-.8-.23-1.22.11-.36.31-.46.66-.29.17.09.33.19.49.29.63.43,1.43.53,2.14.27.06-.02.11-.04.17-.05.61-.16.91.12.82.76-.11.73-.75,1.27-1.49,1.25h-.3"/><path class="s" d="m13.05,10.75c.02.42-.16.82-.5,1.08-.82.64-1.93.77-2.88.33-.6-.21-1.01-.78-1.01-1.42,0-.37.18-.54.55-.47.33.07.65.19.98.27.57.14,1.17.04,1.66-.28.13-.09.27-.17.41-.24.2-.14.48-.09.62.11.04.06.07.12.08.19.04.14.07.28.09.43"/><path class="s" d="m17.11,11.66c-.53-.02-1.04-.17-1.5-.43-.55-.31-.86-.92-.8-1.55.08-.44.31-.57.71-.39.23.1.45.22.67.32.55.27,1.2.3,1.77.06l.22-.09c.65-.26.92-.07.92.62.03.6-.37,1.15-.95,1.3-.33.11-.68.17-1.03.16"/><path class="s" d="m11.15,16.87c-.47.03-.93-.08-1.33-.32-.49-.26-.78-.79-.75-1.34,0-.34.2-.49.53-.43.18.04.37.09.54.16.77.3,1.64.18,2.3-.32.49-.35.86-.19.97.4.14.63-.18,1.27-.77,1.53-.46.24-.97.35-1.49.32"/><path class="s" d="m4.5,18.96c-.8.11-1.55-.41-1.72-1.2-.09-.39.05-.56.45-.58.42-.03.83.08,1.25.03.47-.06.91-.26,1.25-.58.14-.13.28-.26.43-.37.28-.21.5-.16.69.14.35.55.27,1.27-.2,1.73-.59.53-1.35.83-2.15.83"/></g><path class="s" d="m45.28,19.01V3.17h12.76c.54,0,1.07.14,1.54.42.46.27.85.65,1.12,1.11.28.46.42.99.42,1.53v9.72c0,.54-.14,1.07-.42,1.53-.28.46-.66.84-1.12,1.11-.47.28-1,.42-1.54.42h-12.76Zm3.15-2.93h9.48c.07,0,.14-.03.2-.07.06-.05.09-.11.09-.19V6.36c0-.07-.03-.14-.09-.19-.05-.05-.13-.08-.2-.08h-9.48c-.07,0-.14.03-.19.08-.05.05-.08.12-.08.19v9.46c0,.07.03.14.08.19.05.05.12.08.19.07Zm16.08,2.93V3.17h14.59v2.93h-11.66v3.52h9.37v2.95h-9.37v3.52h11.66v2.93h-14.59Zm20.68,0c-.54,0-1.07-.14-1.53-.42-.46-.27-.84-.65-1.11-1.11-.28-.46-.42-.99-.42-1.53v-1.21h2.9v1.08c0,.07.03.14.08.19.05.05.12.08.19.08h9.48c.07,0,.14-.03.19-.08.05-.05.08-.12.08-.19v-3.01c0-.07-.03-.13-.08-.18-.05-.04-.12-.07-.19-.07h-9.59c-.54,0-1.07-.14-1.53-.42-.46-.27-.84-.65-1.11-1.11-.28-.47-.43-1.01-.42-1.55v-3.26c0-.54.14-1.07.42-1.53.27-.46.65-.84,1.11-1.11.46-.28.99-.42,1.53-.42h9.72c.54,0,1.07.14,1.53.42.46.27.84.65,1.11,1.11.28.46.42.99.42,1.53v1.21h-2.93v-1.08c0-.07-.03-.14-.08-.19-.05-.05-.12-.08-.19-.08h-9.48c-.07,0-.14.03-.19.08-.05.05-.08.12-.08.19v3.01c0,.07.03.13.08.18.05.04.12.07.19.07h9.61c.54,0,1.07.14,1.53.42.46.27.84.65,1.11,1.11.28.47.43,1.01.42,1.55v3.26c0,.54-.14,1.07-.42,1.53-.27.46-.65.84-1.11,1.11-.46.28-.99.42-1.53.42h-9.73Zm21.74,0V6.09h-6.47v-2.93h15.84v2.93h-6.45v12.91h-2.93Zm24.53,0l-4.77-5.7h3.81l4.14,4.89v.81h-3.17Zm-12.63,0V3.19h12.76c.54,0,1.07.14,1.54.42.46.27.85.65,1.12,1.11.28.46.42.99.42,1.53v4.27c0,.54-.14,1.07-.42,1.54-.27.46-.66.84-1.12,1.11-.47.27-1,.41-1.54.41l-9.86.02v5.41h-2.9Zm3.17-8.36h9.46c.07,0,.14-.02.2-.07.06-.04.09-.11.09-.18v-4.05c0-.07-.03-.14-.09-.19-.05-.05-.13-.08-.2-.08h-9.46c-.07,0-.14.03-.19.08-.05.05-.08.12-.08.19v4.05c0,.07.03.13.08.18.05.04.12.07.19.06Zm15.91,8.36V6.23c0-.54.14-1.07.42-1.53.27-.46.65-.84,1.11-1.11.46-.28.99-.42,1.53-.42h9.7c.54,0,1.07.14,1.54.42.46.27.85.65,1.12,1.11.28.46.42.99.42,1.53v12.78h-2.93v-5.32h-10.01v5.32h-2.9Zm2.9-8.23h10.01v-4.42c0-.07-.03-.14-.09-.19-.05-.05-.13-.08-.2-.08h-9.46c-.07,0-.14.03-.19.08-.05.05-.08.12-.08.19v4.42Zm-82.94,30.23l-4.77-5.7h3.81l4.14,4.88v.82h-3.17Zm-12.63,0v-15.82h12.76c.54,0,1.07.14,1.54.42.46.27.85.65,1.12,1.11.28.46.42.99.42,1.53v4.27c0,.54-.14,1.07-.42,1.54-.27.46-.66.84-1.12,1.11-.47.27-1,.41-1.54.41l-9.86.02v5.41h-2.9Zm3.17-8.36h9.46c.07,0,.14-.02.2-.07.06-.04.09-.11.09-.18v-4.05c0-.07-.03-.14-.09-.19-.05-.05-.13-.08-.2-.08h-9.46c-.15,0-.26.12-.26.26,0,0,0,0,0,0v4.05c0,.07.03.13.08.18.05.04.12.07.19.06Zm18.88,8.36c-.54,0-1.07-.14-1.53-.42-.46-.27-.84-.65-1.11-1.11-.28-.46-.42-.99-.42-1.53v-9.72c0-.54.14-1.07.42-1.53.27-.46.65-.84,1.11-1.11.46-.28.99-.42,1.53-.42h9.72c.54,0,1.07.14,1.53.42.46.27.84.65,1.11,1.11.28.46.42.99.42,1.53v9.72c0,.54-.14,1.07-.42,1.53-.27.46-.65.84-1.11,1.11-.46.28-.99.42-1.53.42h-9.72Zm.11-2.93h9.46c.07,0,.15-.03.2-.08.06-.05.09-.11.09-.19v-9.46c0-.07-.03-.14-.09-.19-.05-.05-.13-.08-.2-.08h-9.46c-.15,0-.26.12-.26.26,0,0,0,0,0,0v9.46c0,.15.12.26.26.26,0,0,0,0,0,0Zm16.04,2.93v-15.84h12.14c.54,0,1.07.14,1.53.42.46.27.84.65,1.11,1.11.28.46.42.99.42,1.53v3.1c0,.18-.01.37-.04.55-.03.17-.08.34-.15.51.24.33.44.68.6,1.06.15.35.23.72.23,1.1v3.41c0,.54-.14,1.07-.42,1.53-.28.46-.66.84-1.12,1.11-.47.28-1,.42-1.54.42h-12.75Zm3.17-2.93h9.46c.07,0,.15-.03.2-.08.06-.05.09-.11.09-.19v-3.15c0-.07-.03-.14-.09-.19-.05-.05-.13-.08-.2-.08h-9.46c-.15,0-.26.12-.26.26,0,0,0,0,0,0v3.15c0,.15.12.26.26.26,0,0,0,0,0,0Zm0-6.6h8.84c.07,0,.13-.03.18-.08.04-.05.07-.12.07-.19v-2.86c0-.07-.02-.13-.07-.19-.04-.05-.11-.08-.18-.08h-8.84c-.15,0-.26.12-.26.26,0,0,0,0,0,0v2.86c0,.15.12.26.26.26,0,0,0,0,0,0Zm18.96,9.53c-.54,0-1.07-.14-1.53-.42-.46-.27-.84-.65-1.11-1.11-.28-.46-.42-.99-.42-1.53v-9.72c0-.54.14-1.07.42-1.53.27-.46.65-.84,1.11-1.11.46-.28.99-.42,1.53-.42h9.72c.54,0,1.07.14,1.53.42.46.27.84.65,1.11,1.11.28.46.42.99.42,1.53v9.72c0,.54-.14,1.07-.42,1.53-.27.46-.65.84-1.11,1.11-.46.28-.99.42-1.53.42h-9.72Zm.11-2.93h9.46c.07,0,.15-.03.2-.08.06-.05.09-.11.09-.19v-9.46c0-.07-.03-.14-.09-.19-.05-.05-.13-.08-.2-.08h-9.46c-.15,0-.26.12-.26.26,0,0,0,0,0,0v9.46c0,.15.12.26.26.26,0,0,0,0,0,0Zm21.65,2.93v-12.91h-6.47v-2.93h15.84v2.93h-6.45v12.91h-2.93Zm11.59,0v-15.84h2.88v15.84h-2.88Zm8.95,0c-.54,0-1.07-.14-1.53-.42-.46-.27-.84-.65-1.11-1.11-.28-.46-.42-.99-.42-1.53v-9.72c0-.54.14-1.07.42-1.53.27-.46.65-.84,1.11-1.11.46-.28.99-.42,1.53-.42h12.74v2.93h-12.12c-.21,0-.41.06-.56.2-.15.15-.22.36-.21.57v8.44c-.03.4.27.74.67.77.03,0,.07,0,.1,0h12.12v2.93h-12.74Zm18.9,0c-.54,0-1.07-.14-1.53-.42-.46-.27-.84-.65-1.11-1.11-.28-.46-.42-.99-.42-1.53v-1.21h2.9v1.08c0,.15.12.26.26.26,0,0,0,0,0,0h9.48c.15,0,.26-.12.26-.26h0v-3.01c0-.07-.03-.13-.08-.18-.05-.04-.12-.07-.19-.07h-9.59c-.54,0-1.07-.14-1.53-.42-.46-.27-.84-.65-1.11-1.11-.28-.47-.43-1.01-.42-1.55v-3.26c0-.54.14-1.07.42-1.53.27-.46.65-.84,1.11-1.11.46-.28.99-.42,1.53-.42h9.72c.54,0,1.07.14,1.53.42.46.27.84.65,1.11,1.11.28.46.42.99.42,1.53v1.21h-2.93v-1.08c0-.15-.12-.26-.26-.26,0,0,0,0,0,0h-9.48c-.15,0-.26.12-.26.26h0v3.02c0,.07.03.13.08.18.05.04.12.07.19.07h9.61c.54,0,1.07.14,1.53.42.46.27.84.65,1.11,1.11.28.47.43,1.01.42,1.55v3.26c0,.54-.14,1.07-.42,1.53-.27.46-.65.84-1.11,1.11-.46.28-.99.42-1.53.42h-9.72Z"/></svg>