<?xml version="1.0" encoding="UTF-8"?><svg id="Layer_1" xmlns="http://www.w3.org/2000/svg" viewBox="0 0 569.97 168.19"><defs><style>.cls-1{fill:#231f20;}.cls-2{fill:#6389b3;}</style></defs><g><path class="cls-1" d="M23.03,165.7c-7.95-3.58-9.66-15.69-11.89-31.45-3.06-21.61-5.07-35.79,3.88-48.18,8.79-12.18,22.87-15.3,25.44-15.87,6.03-1.33,11.1-.77,21.26,.36,17.52,1.95,20.48,6.27,21.26,7.57,2.58,4.34,2.44,8.65,2.44,8.65-.08,2.44-.78,2.92-.7,5.41,.14,4.51,2.41,5.96,1.74,7.93-.67,1.97-3.51,1.9-8.71,3.25-.78,.2-6.59,1.73-10.11,3.6-5.9,3.14-11.96,10.77-11.15,18.04,.52,4.65,3.76,8.28,7.32,12.26,3.09,3.46,5.06,4.39,7.32,8.29,1.58,2.73,3.04,5.25,2.79,8.29-.51,6.02-7.45,10.4-12.89,11.83-4.51,1.19-6.8,.04-12.89-.65-15.36-1.75-18.94,3.43-25.09,.65l-.02,.02Z"/><path class="cls-1" d="M107.01,117.8c-4.91,1.16-11.65-3.15-12.55-8.65-.42-2.57,.55-4.69,1.05-5.77,2.66-5.81,8.9-7.44,10.8-7.93,2.25-.59,6.62-1.73,10.45,.72,.68,.43,3.53,2.26,3.72,5.05,.14,2.16-1.4,3.55-4.42,6.85-7.33,8.03-6.76,9.19-9.06,9.74h0Z"/><path class="cls-1" d="M85.76,113.83c1.76,.44,1.51,2.63,3.48,5.05,3.3,4.03,7.81,2.55,9.41,6.13,.63,1.42,.57,3.08,0,4.33-1.31,2.85-5.16,3.18-5.92,3.25-4.04,.35-7.96-2.12-10.11-5.41-1.96-3.01-3.31-8.07-1.05-11.18,.89-1.22,2.63-2.55,4.18-2.16h0Z"/><path class="cls-1" d="M85.31,63.25c-3.38,3.25-11.33,1.87-13.28-2.48-.8-1.77-.77-4.44,.48-5.33,1.51-1.09,3.38,1.46,8.36,2.11,3.46,.45,5.19-.44,5.96,.71,.8,1.2-.11,3.64-1.51,5h-.01Z"/><path class="cls-1" d="M89.17,46.01c-3.35,3.28-11.32,1.95-13.3-2.39-.81-1.77-.8-4.43,.44-5.34,1.5-1.1,3.39,1.44,8.37,2.05,3.46,.42,5.19-.47,5.96,.67,.81,1.2-.08,3.64-1.48,5.01h.01Z"/><path class="cls-1" d="M65.99,41.69c-2.92,3.69-10.99,3.42-13.48-.62-1.02-1.65-1.34-4.29-.22-5.35,1.36-1.28,3.54,.98,8.56,.93,3.48-.03,5.09-1.15,5.99-.12,.95,1.08,.36,3.62-.85,5.16Z"/><path class="cls-1" d="M66.15,58.91c-2.92,3.7-10.98,3.44-13.48-.6-1.02-1.65-1.34-4.29-.22-5.35,1.36-1.29,3.54,.98,8.56,.92,3.48-.04,5.08-1.16,5.99-.13,.95,1.08,.37,3.62-.85,5.16Z"/><path class="cls-1" d="M44.84,42.19c-2.47,4.03-10.51,4.76-13.46,1.06-1.2-1.51-1.83-4.1-.84-5.29,1.2-1.44,3.63,.53,8.6-.14,3.45-.47,4.92-1.78,5.94-.86,1.07,.95,.78,3.55-.25,5.23h.01Z"/><path class="cls-1" d="M46.17,58.93c-2.48,4.02-10.52,4.74-13.46,1.02-1.2-1.51-1.82-4.1-.82-5.29,1.2-1.44,3.63,.54,8.6-.12,3.46-.46,4.92-1.76,5.94-.85,1.06,.96,.77,3.55-.26,5.23h0Z"/><path class="cls-1" d="M19.07,47.51c-1.57,4.49-9.26,7-12.92,4.05-1.49-1.21-2.64-3.59-1.92-4.97,.87-1.68,3.65-.29,8.37-2.06,3.27-1.23,4.43-2.83,5.62-2.17,1.24,.69,1.51,3.29,.85,5.16h0Z"/><path class="cls-1" d="M23.6,64.14c-1.57,4.49-9.26,7-12.92,4.05-1.49-1.21-2.64-3.59-1.92-4.97,.87-1.68,3.65-.29,8.37-2.06,3.27-1.23,4.43-2.83,5.62-2.17,1.24,.69,1.51,3.29,.85,5.16h0Z"/><path class="cls-1" d="M7.7,36.3c-3.99,.24-6.4-4.97-6.77-5.78C0,28.37,0,26.49,0,24.5c0-3,.02-5.57,1.77-7.68,1.5-1.8,4.37-3.38,6.54-2.42,1.56,.69,2.21,2.45,3.18,5.06,.6,1.62,.81,2.85,1.14,4.8,.66,3.91,.99,5.86,.46,7.36-.74,2.1-2.8,4.51-5.4,4.66v.02Z"/><path class="cls-1" d="M35.2,30.15c-2.95-.49-4.64-2.96-5.17-3.73-1.96-2.85-1.85-5.89-1.67-10.69,.12-3.3,.23-5.35,1.59-7.45,.51-.78,2.07-3.19,4.59-3.46,3.51-.38,6.16,3.66,6.5,4.18,.58,.88,.93,1.7,2.3,10.13,.66,4.04,.69,4.51,.48,5.27-.92,3.34-4.78,6.4-8.62,5.76h0Z"/><path class="cls-1" d="M90.32,29.55c-1.73,.82-3.34,.71-3.96,.64-.29-.04-3.24-.43-4.94-2.75-.93-1.26-1.1-2.56-.76-8.43,.52-9,1.15-9.93,1.72-10.54,1.84-1.97,4.99-2.75,7.59-1.88,3.81,1.28,4.98,5.61,5.54,7.69,1.23,4.58-.2,8.34-.66,9.48-.7,1.75-1.78,4.49-4.53,5.79Z"/><path class="cls-1" d="M58.7,26.7c-2.83-.98-4.12-3.7-4.52-4.55-1.49-3.15-.9-6.12,.02-10.83,.64-3.24,1.06-5.24,2.74-7.09,.62-.69,2.54-2.8,5.08-2.64,3.53,.22,5.51,4.65,5.76,5.21,.43,.96,.65,1.83,.69,10.38,.02,4.1-.03,4.56-.35,5.28-1.43,3.14-5.72,5.52-9.41,4.24h-.01Z"/></g><g><path class="cls-2" d="M138.05,166.35c-.48-.48-.72-1.09-.72-1.83V92.04c0-.81,.24-1.46,.72-1.94,.48-.48,1.09-.72,1.83-.72h27.08c8.51,0,15.17,2,19.98,5.99,4.81,4,7.21,9.77,7.21,17.32,0,5.62-1.39,10.25-4.16,13.88-2.78,3.63-6.68,6.14-11.71,7.55l17.09,29.53c.22,.44,.33,.85,.33,1.22,0,.59-.24,1.11-.72,1.55-.48,.44-1.02,.67-1.61,.67h-5.33c-1.11,0-1.98-.26-2.61-.78-.63-.52-1.2-1.26-1.72-2.22l-16.1-28.19h-19.42v28.64c0,.74-.26,1.35-.78,1.83-.52,.48-1.15,.72-1.89,.72h-5.66c-.74,0-1.35-.24-1.83-.72Zm28.47-39.9c11.03,0,16.54-4.62,16.54-13.88s-5.51-13.88-16.54-13.88h-18.31v27.75h18.31Z"/><path d="M213.54,161.08c-4.29-4.74-6.55-10.88-6.78-18.42l-.11-4.7,.11-4.7c.22-7.54,2.48-13.68,6.78-18.42,4.29-4.74,10.32-7.11,18.09-7.11s13.79,2.37,18.09,7.11c4.29,4.74,6.55,10.88,6.78,18.42,.07,.75,.11,2.32,.11,4.7s-.04,3.96-.11,4.7c-.22,7.54-2.48,13.68-6.78,18.42-4.29,4.74-10.32,7.11-18.09,7.11s-13.79-2.37-18.09-7.11Zm30.91-4.48c3.25-3.4,4.98-8.23,5.21-14.5,.07-.75,.11-2.13,.11-4.14s-.04-3.4-.11-4.14c-.22-6.27-1.96-11.11-5.21-14.5-3.25-3.4-7.52-5.1-12.82-5.1s-9.58,1.7-12.82,5.1c-3.25,3.4-4.98,8.23-5.21,14.5l-.11,4.14,.11,4.14c.22,6.27,1.96,11.11,5.21,14.5,3.25,3.4,7.52,5.1,12.82,5.1s9.58-1.7,12.82-5.1Z"/><path d="M278.89,159.34v5.26c0,.75-.22,1.34-.67,1.79-.45,.45-1.05,.67-1.79,.67h-1.9c-.75,0-1.34-.22-1.79-.67-.45-.45-.67-1.04-.67-1.79V90.02c0-.75,.22-1.34,.67-1.79,.45-.45,1.04-.67,1.79-.67h1.9c.75,0,1.34,.22,1.79,.67,.45,.45,.67,1.05,.67,1.79v26.54c4.41-5.9,10.68-8.85,18.82-8.85s14.02,2.63,17.86,7.9c3.84,5.26,5.88,11.67,6.1,19.21,.07,.75,.11,1.79,.11,3.14s-.04,2.39-.11,3.14c-.22,7.54-2.26,13.94-6.1,19.21-3.85,5.26-9.8,7.9-17.86,7.9s-14.49-2.95-18.82-8.85Zm31.42-3.42c2.8-3.84,4.31-8.79,4.54-14.84,.07-.75,.11-1.79,.11-3.14,0-6.94-1.34-12.64-4.03-17.08-2.69-4.44-7.32-6.66-13.89-6.66-3.96,0-7.28,.93-9.97,2.8-2.69,1.87-4.7,4.24-6.05,7.11-1.34,2.88-2.05,5.92-2.13,9.13l-.11,4.37,.11,4.37c.22,5.3,1.83,9.91,4.82,13.83,2.99,3.92,7.43,5.88,13.33,5.88s10.47-1.92,13.27-5.77Z"/><path d="M340.99,161.08c-4.29-4.74-6.55-10.88-6.78-18.42l-.11-4.7,.11-4.7c.22-7.54,2.48-13.68,6.78-18.42,4.29-4.74,10.32-7.11,18.09-7.11s13.79,2.37,18.09,7.11c4.29,4.74,6.55,10.88,6.78,18.42,.07,.75,.11,2.32,.11,4.7s-.04,3.96-.11,4.7c-.22,7.54-2.48,13.68-6.78,18.42-4.29,4.74-10.32,7.11-18.09,7.11s-13.79-2.37-18.09-7.11Zm30.91-4.48c3.25-3.4,4.98-8.23,5.21-14.5,.07-.75,.11-2.13,.11-4.14s-.04-3.4-.11-4.14c-.22-6.27-1.96-11.11-5.21-14.5-3.25-3.4-7.52-5.1-12.82-5.1s-9.58,1.7-12.82,5.1c-3.25,3.4-4.98,8.23-5.21,14.5l-.11,4.14,.11,4.14c.22,6.27,1.96,11.11,5.21,14.5,3.25,3.4,7.52,5.1,12.82,5.1s9.58-1.7,12.82-5.1Z"/><path d="M406.57,162.09c-2.32-3.32-3.47-7.9-3.47-13.72v-33.04h-8.74c-.75,0-1.34-.22-1.79-.67s-.67-1.04-.67-1.79v-1.57c0-.75,.22-1.34,.67-1.79,.45-.45,1.04-.67,1.79-.67h8.74v-18.82c0-.75,.22-1.34,.67-1.79,.45-.45,1.04-.67,1.79-.67h1.9c.75,0,1.34,.22,1.79,.67,.45,.45,.67,1.05,.67,1.79v18.82h13.89c.75,0,1.34,.22,1.79,.67,.45,.45,.67,1.05,.67,1.79v1.57c0,.75-.22,1.34-.67,1.79s-1.05,.67-1.79,.67h-13.89v32.59c0,4.18,.69,7.34,2.07,9.46,1.38,2.13,3.68,3.19,6.89,3.19h6.05c.75,0,1.34,.22,1.79,.67,.45,.45,.67,1.05,.67,1.79v1.57c0,.75-.22,1.34-.67,1.79-.45,.45-1.05,.67-1.79,.67h-6.61c-5.53,0-9.45-1.66-11.76-4.98Z"/><path d="M438.38,96.18c-.45-.45-.67-1.04-.67-1.79v-4.26c0-.75,.22-1.36,.67-1.85,.45-.48,1.04-.73,1.79-.73h4.26c.75,0,1.36,.24,1.85,.73,.48,.49,.73,1.1,.73,1.85v4.26c0,.75-.24,1.34-.73,1.79-.49,.45-1.1,.67-1.85,.67h-4.26c-.75,0-1.34-.22-1.79-.67Zm1.23,70.22c-.45-.45-.67-1.04-.67-1.79v-53.31c0-.75,.22-1.34,.67-1.79,.45-.45,1.04-.67,1.79-.67h1.9c.75,0,1.34,.22,1.79,.67,.45,.45,.67,1.05,.67,1.79v53.31c0,.75-.22,1.34-.67,1.79-.45,.45-1.05,.67-1.79,.67h-1.9c-.75,0-1.34-.22-1.79-.67Z"/><path d="M467.94,161.42c-4.26-4.52-6.5-10.84-6.72-18.98l-.11-4.48,.11-4.48c.22-8.14,2.46-14.47,6.72-18.98,4.26-4.52,10.27-6.78,18.03-6.78,4.93,0,9.13,.88,12.6,2.63,3.47,1.75,6.07,4,7.78,6.72,1.72,2.73,2.65,5.54,2.8,8.46,.07,.67-.15,1.25-.67,1.74-.52,.49-1.12,.73-1.79,.73h-1.57c-.75,0-1.29-.17-1.62-.5s-.69-.95-1.06-1.85c-1.49-4.11-3.58-7.04-6.27-8.79-2.69-1.75-6.09-2.63-10.19-2.63-5.38,0-9.65,1.62-12.82,4.87-3.17,3.25-4.87,8.23-5.1,14.95l-.11,3.92,.11,3.92c.22,6.72,1.92,11.7,5.1,14.95,3.17,3.25,7.45,4.87,12.82,4.87,4.11,0,7.5-.88,10.19-2.63,2.69-1.75,4.78-4.68,6.27-8.79,.37-.9,.73-1.51,1.06-1.85,.34-.34,.88-.5,1.62-.5h1.57c.67,0,1.27,.24,1.79,.73,.52,.49,.75,1.06,.67,1.74-.15,2.91-1.08,5.73-2.8,8.46-1.72,2.73-4.31,4.97-7.78,6.72-3.47,1.75-7.67,2.63-12.6,2.63-7.77,0-13.78-2.26-18.03-6.78Z"/><path d="M530.16,165.73c-3.32-1.64-5.82-3.51-7.5-5.6-1.68-2.09-2.52-3.77-2.52-5.04,0-.67,.26-1.21,.78-1.62,.52-.41,1.08-.62,1.68-.62h1.68c.52,0,.95,.09,1.29,.28,.34,.19,.73,.58,1.18,1.18,1.64,2.31,3.64,4.13,5.99,5.43,2.35,1.31,5.58,1.96,9.69,1.96,4.63,0,8.36-.88,11.2-2.63,2.84-1.75,4.26-4.27,4.26-7.56,0-2.02-.58-3.66-1.74-4.93-1.16-1.27-3.02-2.37-5.6-3.3-2.58-.93-6.4-2-11.48-3.19-6.65-1.49-11.18-3.54-13.61-6.16-2.43-2.61-3.64-5.94-3.64-9.97,0-2.76,.76-5.38,2.3-7.84,1.53-2.46,3.81-4.48,6.83-6.05,3.02-1.57,6.66-2.35,10.92-2.35,4.48,0,8.27,.77,11.37,2.3,3.1,1.53,5.41,3.3,6.94,5.32,1.53,2.02,2.3,3.66,2.3,4.93,0,.67-.24,1.21-.73,1.62-.49,.41-1.06,.62-1.74,.62h-1.68c-1.05,0-1.87-.48-2.46-1.46-1.5-2.24-3.19-3.94-5.1-5.1-1.9-1.16-4.87-1.74-8.9-1.74-4.33,0-7.62,.9-9.86,2.69-2.24,1.79-3.36,4.14-3.36,7.06,0,1.79,.45,3.29,1.34,4.48,.9,1.2,2.58,2.3,5.04,3.3s6.05,2.04,10.75,3.08c6.94,1.57,11.83,3.66,14.67,6.27,2.84,2.62,4.26,6.09,4.26,10.42,0,3.06-.86,5.86-2.58,8.4-1.72,2.54-4.26,4.56-7.62,6.05-3.36,1.49-7.39,2.24-12.1,2.24s-8.94-.82-12.26-2.46Z"/></g><g><path class="cls-2" d="M138.05,78.8c-.48-.48-.72-1.09-.72-1.83V4.48c0-.81,.24-1.46,.72-1.94,.48-.48,1.09-.72,1.83-.72h25.2c11.17,0,19.24,2.5,24.2,7.49,4.96,4.99,7.55,12.53,7.77,22.59,.07,2.15,.11,5.03,.11,8.66s-.04,6.55-.11,8.77c-.22,7.03-1.39,12.75-3.5,17.15-2.11,4.4-5.42,7.68-9.93,9.82-4.51,2.15-10.51,3.22-17.98,3.22h-25.75c-.74,0-1.35-.24-1.83-.72Zm27.03-8.71c5.11,0,9.16-.7,12.15-2.11,3-1.41,5.18-3.64,6.55-6.72,1.37-3.07,2.13-7.2,2.28-12.38,.15-4.44,.22-7.21,.22-8.33,0-1.18-.07-3.92-.22-8.21-.15-7.33-1.89-12.67-5.22-16.04-3.33-3.37-8.77-5.05-16.32-5.05h-16.32v58.83h16.87Z"/><path d="M217.7,73.64c-4.33-4.67-6.79-10.92-7.39-18.76l-.11-4.48,.11-4.48c.6-7.77,3.04-14,7.34-18.7,4.29-4.7,10.02-7.06,17.19-7.06,7.76,0,13.83,2.58,18.2,7.73,4.37,5.15,6.55,12.21,6.55,21.17v1.68c0,.75-.24,1.34-.73,1.79-.49,.45-1.1,.67-1.85,.67h-39.87v1.12c.15,3.51,.95,6.78,2.41,9.8,1.46,3.02,3.49,5.45,6.1,7.28,2.61,1.83,5.67,2.74,9.18,2.74,4.11,0,7.45-.8,10.02-2.41,2.58-1.6,4.42-3.23,5.54-4.87,.67-.9,1.18-1.46,1.51-1.68s.95-.34,1.85-.34h1.79c.67,0,1.23,.19,1.68,.56,.45,.38,.67,.86,.67,1.46,0,1.57-.99,3.46-2.97,5.66-1.98,2.2-4.72,4.11-8.23,5.71-3.51,1.6-7.47,2.41-11.87,2.41-7.09,0-12.81-2.33-17.14-7Zm35.06-26.71v-.45c0-5.75-1.62-10.49-4.87-14.22-3.25-3.73-7.6-5.6-13.05-5.6s-9.76,1.87-12.94,5.6c-3.17,3.73-4.76,8.47-4.76,14.22v.45h35.62Z"/><path d="M280.59,78.17c-3.32-1.64-5.82-3.51-7.5-5.6-1.68-2.09-2.52-3.77-2.52-5.04,0-.67,.26-1.21,.78-1.62,.52-.41,1.08-.62,1.68-.62h1.68c.52,0,.95,.09,1.29,.28,.34,.19,.73,.58,1.18,1.18,1.64,2.31,3.64,4.13,5.99,5.43,2.35,1.31,5.58,1.96,9.69,1.96,4.63,0,8.36-.88,11.2-2.63,2.84-1.75,4.26-4.27,4.26-7.56,0-2.02-.58-3.66-1.74-4.93-1.16-1.27-3.02-2.37-5.6-3.3-2.58-.93-6.4-2-11.48-3.19-6.65-1.49-11.18-3.54-13.61-6.16-2.43-2.61-3.64-5.94-3.64-9.97,0-2.76,.76-5.38,2.3-7.84,1.53-2.46,3.81-4.48,6.83-6.05,3.02-1.57,6.66-2.35,10.92-2.35,4.48,0,8.27,.77,11.37,2.3,3.1,1.53,5.41,3.3,6.94,5.32,1.53,2.02,2.3,3.66,2.3,4.93,0,.67-.24,1.21-.73,1.62-.49,.41-1.06,.62-1.74,.62h-1.68c-1.05,0-1.87-.48-2.46-1.46-1.5-2.24-3.19-3.94-5.1-5.1-1.9-1.16-4.87-1.74-8.9-1.74-4.33,0-7.62,.9-9.86,2.69-2.24,1.79-3.36,4.14-3.36,7.06,0,1.79,.45,3.29,1.34,4.48,.9,1.2,2.58,2.3,5.04,3.3s6.05,2.04,10.75,3.08c6.94,1.57,11.83,3.66,14.67,6.27,2.84,2.62,4.26,6.09,4.26,10.42,0,3.06-.86,5.86-2.58,8.4-1.72,2.54-4.26,4.56-7.62,6.05-3.36,1.49-7.39,2.24-12.1,2.24s-8.94-.82-12.26-2.46Z"/><path d="M337.32,74.53c-2.32-3.32-3.47-7.9-3.47-13.72V27.77h-8.74c-.75,0-1.34-.22-1.79-.67s-.67-1.04-.67-1.79v-1.57c0-.75,.22-1.34,.67-1.79,.45-.45,1.04-.67,1.79-.67h8.74V2.46c0-.75,.22-1.34,.67-1.79,.45-.45,1.04-.67,1.79-.67h1.9c.75,0,1.34,.22,1.79,.67,.45,.45,.67,1.05,.67,1.79V21.28h13.89c.75,0,1.34,.22,1.79,.67,.45,.45,.67,1.05,.67,1.79v1.57c0,.75-.22,1.34-.67,1.79s-1.05,.67-1.79,.67h-13.89V60.37c0,4.18,.69,7.34,2.07,9.46,1.38,2.13,3.68,3.19,6.89,3.19h6.05c.75,0,1.34,.22,1.79,.67,.45,.45,.67,1.05,.67,1.79v1.57c0,.75-.22,1.34-.67,1.79-.45,.45-1.05,.67-1.79,.67h-6.61c-5.53,0-9.45-1.66-11.76-4.98Z"/><path d="M370.36,78.85c-.45-.45-.67-1.04-.67-1.79V23.85c0-.75,.22-1.36,.67-1.85,.45-.49,1.04-.73,1.79-.73h1.79c.75,0,1.36,.24,1.85,.73,.49,.49,.73,1.1,.73,1.85v5.15c2.69-5.15,7.76-7.73,15.23-7.73h4.14c.75,0,1.34,.22,1.79,.67,.45,.45,.67,1.05,.67,1.79v1.57c0,.75-.22,1.34-.67,1.79-.45,.45-1.05,.67-1.79,.67h-4.82c-4.48,0-8.03,1.31-10.64,3.92s-3.92,6.16-3.92,10.64v34.72c0,.75-.24,1.34-.73,1.79-.49,.45-1.1,.67-1.85,.67h-1.79c-.75,0-1.34-.22-1.79-.67Z"/><path d="M413.48,78.4c-3.06-1.49-5.51-3.51-7.34-6.05-1.83-2.54-2.74-5.34-2.74-8.4,0-4.93,2-8.96,5.99-12.1,3.99-3.14,9.39-5.15,16.18-6.05l17.7-2.46v-3.92c0-4.11-1.25-7.26-3.75-9.46-2.5-2.2-6.33-3.3-11.48-3.3-3.81,0-6.93,.75-9.35,2.24-2.43,1.49-3.98,3.29-4.65,5.38-.3,.9-.65,1.51-1.06,1.85-.41,.34-.95,.5-1.62,.5h-1.57c-.67,0-1.25-.24-1.74-.73-.49-.48-.73-1.06-.73-1.74,0-1.64,.75-3.56,2.24-5.77,1.49-2.2,3.81-4.12,6.94-5.77,3.14-1.64,6.98-2.46,11.54-2.46,7.99,0,13.66,1.9,17.02,5.71,3.36,3.81,5.04,8.44,5.04,13.89v37.3c0,.75-.22,1.34-.67,1.79-.45,.45-1.05,.67-1.79,.67h-1.9c-.75,0-1.34-.22-1.79-.67s-.67-1.04-.67-1.79v-5.26c-1.64,2.46-4.05,4.55-7.22,6.27-3.17,1.72-7.37,2.58-12.6,2.58-3.58,0-6.91-.75-9.97-2.24Zm24.53-9.63c3.51-3.58,5.26-8.74,5.26-15.46v-3.81l-14.45,2.02c-6.12,.82-10.75,2.24-13.89,4.26-3.14,2.02-4.7,4.56-4.7,7.62,0,3.44,1.44,6.09,4.31,7.95,2.87,1.87,6.22,2.8,10.02,2.8,5.45,0,9.93-1.79,13.44-5.38Z"/></g></svg>